<svg display="block" width="40" height="40" viewBox="0 0 40 40" fill="none" xmlns="http://www.w3.org/2000/svg">
<path d="M20 39.9998C31.0155 39.9998 40 31.0155 40 20C40 8.9843 31.0157 0 20 0C8.9843 0 0 8.9843 0 19.9999C0 31.0154 8.9843 39.9998 20 39.9998Z" fill="#FFDEC2"/>
<path d="M25.5159 30.0348V25.9316H14.9648V30.0348L20.2404 34.7241L25.5159 30.0348Z" fill="#FFDCA6"/>
<path fill-rule="evenodd" clip-rule="evenodd" d="M35.1493 33.034C31.4767 37.295 26.0441 39.9998 20.0001 39.9998C14.1234 39.9998 8.82488 37.4428 5.16016 33.3846C5.43432 32.6822 6.03928 32.1351 6.80779 31.9542L14.0612 30.2475C14.2673 30.199 14.4487 30.0967 14.5949 29.9591L20.2406 33.5519L26.1155 30.1249C26.2098 30.1779 26.3105 30.2217 26.4201 30.2475L33.6735 31.9542C34.3086 32.1036 34.832 32.5033 35.1493 33.034Z" fill="#81E3F0"/>
<path d="M14.9648 25.9316V30.2608C21.6106 32.6552 25.5159 26.6626 25.5159 26.6626V25.9315H14.9648V25.9316Z" fill="#F0C290"/>
<path d="M12.6201 12.4497L13.1309 23.6874C13.1786 24.7373 13.6934 25.7108 14.5341 26.3413L16.9577 28.1591C17.5665 28.6157 18.307 28.8626 19.068 28.8626H21.4127C22.1737 28.8626 22.9141 28.6157 23.5229 28.1591L25.9466 26.3413C26.7873 25.7108 27.3021 24.7373 27.3498 23.6874L27.8606 12.4497C27.8605 12.4497 12.6201 12.4497 12.6201 12.4497Z" fill="#FFDCA6"/>
<path fill-rule="evenodd" clip-rule="evenodd" d="M19.9693 39.9997H20.0314C20.5938 39.9989 21.1508 39.9746 21.7016 39.9278L21.3403 34.7241H19.1421L18.7783 39.9627C19.1724 39.9867 19.5695 39.9991 19.9693 39.9997Z" fill="#5B5D6E"/>
<path d="M21.7063 33.5518H18.7754V34.655C18.7754 35.017 19.0688 35.3104 19.4307 35.3104H21.0509C21.4128 35.3104 21.7062 35.017 21.7062 34.655V33.5518H21.7063Z" fill="#515262"/>
<path d="M14.8832 28.7298L20.2411 33.5518C20.2411 33.5518 18.7406 34.3093 16.8889 35.836C16.5069 36.1509 15.9291 36.0234 15.7243 35.5727L13.207 30.0348L14.0034 28.8404C14.2015 28.5429 14.6175 28.4907 14.8832 28.7298Z" fill="white"/>
<path d="M25.5991 28.7298L20.2412 33.5518C20.2412 33.5518 21.7417 34.3093 23.5934 35.836C23.9753 36.1509 24.5531 36.0234 24.758 35.5727L27.2752 30.0348L26.4789 28.8404C26.2807 28.5429 25.8647 28.4907 25.5991 28.7298Z" fill="white"/>
<path d="M23.7939 8.56634L24.3435 12.4497C26.8519 12.9514 27.2134 16.8881 27.2655 18.0125C27.2749 18.2166 27.3401 18.4136 27.4508 18.5852L28.4079 20.0699C28.4079 20.0699 28.0803 17.6153 29.5802 15.9667C29.5803 15.9667 30.0953 6.22162 23.7939 8.56634Z" fill="#4E1E30"/>
<path d="M28.9963 19.82L28.3346 22.467C28.2561 22.7807 27.9743 23.0007 27.6509 23.0007C27.2954 23.0007 26.9956 22.7361 26.9515 22.3834L26.6131 19.6761C26.5225 18.9514 27.0875 18.3114 27.8178 18.3114H27.8183C28.6083 18.3114 29.1879 19.0537 28.9963 19.82Z" fill="#FFDCA6"/>
<path d="M13.1822 7.51605L14.0492 8.10832C10.1292 11.0025 10.8619 15.9667 10.8619 15.9667C12.0342 17.139 12.0342 20.0699 12.0342 20.0699L13.2065 18.8976C13.2065 18.8976 12.7541 15.511 14.965 14.2082C17.0166 12.9992 18.8118 13.6221 20.6436 13.6221C25.5527 13.6221 26.9266 11.7719 26.6885 9.51885C26.5652 8.35303 24.7828 5.92457 20.2406 6.0018C18.4075 6.03294 14.9651 6.58796 13.1822 7.51605Z" fill="#66273F"/>
<path d="M12.8402 13.1091C12.8402 13.1091 12.2174 10.6545 14.0492 8.1084C10.1292 11.0026 10.8619 15.9668 10.8619 15.9668C12.0342 17.1391 12.0342 20.07 12.0342 20.07L13.2065 18.8977C13.2065 18.8977 12.7541 15.5111 14.965 14.2083C17.0166 12.9993 18.8118 13.6221 20.6436 13.6221C21.442 13.6221 22.1377 13.5687 22.7574 13.477C18.9768 13.6037 16.7481 10.74 12.8402 13.1091Z" fill="#4E1E30"/>
<path d="M11.4851 19.82L12.1468 22.467C12.2253 22.7807 12.5071 23.0007 12.8305 23.0007C13.186 23.0007 13.4858 22.7361 13.5299 22.3834L13.8683 19.6761C13.9589 18.9514 13.3939 18.3114 12.6636 18.3114H12.6631C11.8731 18.3114 11.2935 19.0537 11.4851 19.82Z" fill="#FFDCA6"/>
</svg>
