<svg display="block" width="16" height="18" viewBox="0 0 16 18" fill="none" xmlns="http://www.w3.org/2000/svg">
<path d="M14.8748 12.6537C14.2581 11.9401 13.1042 10.8666 13.1042 7.35001C13.1042 4.67907 11.3652 2.54095 9.0204 2.01639V1.30001C9.0204 0.692606 8.56331 0.200012 7.99961 0.200012C7.43591 0.200012 6.97882 0.692606 6.97882 1.30001V2.01639C4.63401 2.54095 2.89504 4.67907 2.89504 7.35001C2.89504 10.8666 1.74114 11.9401 1.12446 12.6537C0.932941 12.8754 0.848035 13.1405 0.849631 13.4C0.853143 13.9638 1.26395 14.5 1.87425 14.5H14.125C14.7353 14.5 15.1464 13.9638 15.1496 13.4C15.1512 13.1405 15.0663 12.8751 14.8748 12.6537ZM3.00516 12.85C3.68249 11.8885 4.42302 10.2949 4.42654 7.36995C4.42654 7.36307 4.42462 7.35689 4.42462 7.35001C4.42462 5.22357 6.02507 3.50001 7.99961 3.50001C9.97415 3.50001 11.5746 5.22357 11.5746 7.35001C11.5746 7.35689 11.5727 7.36307 11.5727 7.36995C11.5762 10.2953 12.3167 11.8889 12.9941 12.85H3.00516ZM7.99961 17.8C9.12701 17.8 10.0415 16.8152 10.0415 15.6H5.95772C5.95772 16.8152 6.87221 17.8 7.99961 17.8Z" fill="#93959C"/>
</svg>
