<svg display="block" width="16" height="16" viewBox="0 0 16 16" fill="none" xmlns="http://www.w3.org/2000/svg">
<path fill-rule="evenodd" clip-rule="evenodd" d="M0.75 0.330017C0.335786 0.330017 0 0.665804 0 1.08002C0 1.49423 0.335786 1.83002 0.75 1.83002H2.77148L3.30451 4.4932C3.30772 4.51347 3.31173 4.53348 3.31652 4.55319L4.4169 10.051L4.41704 10.0517C4.51172 10.5275 4.77064 10.9548 5.14854 11.259C5.52457 11.5617 5.99456 11.7233 6.47705 11.7159H12.8703C13.3528 11.7233 13.8228 11.5617 14.1988 11.259C14.5769 10.9547 14.8359 10.527 14.9305 10.051L14.9305 10.051L14.9316 10.0453L15.9861 4.51582C16.0279 4.29626 15.9697 4.06946 15.8272 3.89724C15.6847 3.72502 15.4729 3.62532 15.2493 3.62532H4.66056L4.12166 0.932824C4.0515 0.582306 3.74371 0.330017 3.38624 0.330017H0.75ZM5.88794 9.75765L4.96078 5.12532H14.3428L13.4588 9.76091C13.4324 9.89082 13.3615 10.0075 13.2582 10.0906C13.1544 10.1742 13.0244 10.2186 12.8911 10.2161L12.8767 10.2159H6.47065L6.45628 10.2161C6.32297 10.2186 6.19301 10.1742 6.08914 10.0906C5.98528 10.007 5.91413 9.88951 5.88816 9.75873L5.88794 9.75765ZM6.02249 14.3525C6.07288 14.3525 6.11372 14.3117 6.11372 14.2613C6.11372 14.2109 6.07288 14.1701 6.02249 14.1701C5.97211 14.1701 5.93127 14.2109 5.93127 14.2613C5.93127 14.3117 5.97211 14.3525 6.02249 14.3525ZM4.61372 14.2613C4.61372 13.4832 5.24445 12.8525 6.02249 12.8525C6.80054 12.8525 7.43127 13.4832 7.43127 14.2613C7.43127 15.0393 6.80054 15.6701 6.02249 15.6701C5.24445 15.6701 4.61372 15.0393 4.61372 14.2613ZM13.2722 14.3525C13.3225 14.3525 13.3634 14.3117 13.3634 14.2613C13.3634 14.2109 13.3225 14.1701 13.2722 14.1701C13.2218 14.1701 13.1809 14.2109 13.1809 14.2613C13.1809 14.3117 13.2218 14.3525 13.2722 14.3525ZM11.8634 14.2613C11.8634 13.4832 12.4941 12.8525 13.2722 12.8525C14.0502 12.8525 14.6809 13.4832 14.6809 14.2613C14.6809 15.0393 14.0502 15.6701 13.2722 15.6701C12.4941 15.6701 11.8634 15.0393 11.8634 14.2613Z" fill="#93959C"/>
</svg>
