<svg width="15" height="16" viewBox="0 0 15 16" fill="none" xmlns="http://www.w3.org/2000/svg">
<path d="M14.9921 8.14945C14.9921 7.49394 14.9411 7.01559 14.8306 6.51953H7.64941V9.47819H11.8646C11.7797 10.2135 11.3208 11.3208 10.3009 12.0648L10.2866 12.1639L12.5572 13.9973L12.7145 14.0137C14.1592 12.6229 14.9921 10.5766 14.9921 8.14945Z" fill="#4285F4"/>
<path d="M7.64922 15.9456C9.71433 15.9456 11.448 15.2369 12.7143 14.0144L10.3007 12.0655C9.65486 12.535 8.78799 12.8628 7.64922 12.8628C5.62659 12.8628 3.90991 11.4721 3.29796 9.5498L3.20826 9.55774L0.847282 11.4623L0.816406 11.5518C2.07417 14.1561 4.65772 15.9456 7.64922 15.9456Z" fill="#34A853"/>
<path d="M3.29835 9.54887C3.13688 9.05281 3.04344 8.52127 3.04344 7.97208C3.04344 7.42283 3.13688 6.89135 3.28986 6.39529L3.28558 6.28964L0.895025 4.35449L0.81681 4.39327C0.298426 5.474 0.000976562 6.68762 0.000976562 7.97208C0.000976562 9.25654 0.298426 10.4701 0.81681 11.5508L3.29835 9.54887Z" fill="#FBBC05"/>
<path d="M7.6492 3.08269C9.08542 3.08269 10.0542 3.72934 10.6066 4.26974L12.7653 2.07286C11.4395 0.788397 9.7143 0 7.6492 0C4.65771 0 2.07417 1.78937 0.816406 4.39371L3.28945 6.39573C3.9099 4.47347 5.62657 3.08269 7.6492 3.08269Z" fill="#EB4335"/>
</svg>
