<svg width="16" height="8" viewBox="0 0 16 8" fill="none" xmlns="http://www.w3.org/2000/svg">
<path d="M0.292432 0.355725C0.619931 0.103848 1.08925 0.164352 1.34223 0.490491L1.34478 0.493691C1.34816 0.497911 1.35472 0.50601 1.36448 0.517675C1.38399 0.541012 1.41624 0.578567 1.46135 0.627846C1.55162 0.726467 1.69298 0.87161 1.88633 1.04352C2.27335 1.38762 2.86585 1.83646 3.67161 2.23523C4.72929 2.75867 6.16282 3.20023 7.99966 3.20023C9.83651 3.20023 11.27 2.75867 12.3277 2.23523C13.1335 1.83646 13.726 1.38762 14.113 1.04352C14.3063 0.87161 14.4477 0.726467 14.538 0.627845C14.5831 0.578566 14.6153 0.541012 14.6349 0.517675C14.6446 0.50601 14.6512 0.497911 14.6545 0.493691L14.6568 0.490884C14.9098 0.164727 15.3794 0.103843 15.7069 0.355725C16.0352 0.608248 16.0967 1.07913 15.8442 1.40746L15.8429 1.40912L15.8413 1.41117L15.8372 1.41646L15.8251 1.4317C15.8153 1.44389 15.8021 1.46007 15.7855 1.47993C15.7523 1.51965 15.7053 1.5741 15.6444 1.64063C15.5227 1.77365 15.3449 1.9554 15.1097 2.16451C14.758 2.4772 14.2764 2.85245 13.6607 3.21735L14.8819 5.60919C15.0703 5.9781 14.9239 6.42985 14.555 6.6182C14.1861 6.80656 13.7343 6.66019 13.546 6.29128L12.317 3.88428C11.3369 4.28441 10.1493 4.59489 8.74966 4.67814V6.95023C8.74966 7.36445 8.41388 7.70023 7.99966 7.70023C7.58545 7.70023 7.24966 7.36445 7.24966 6.95023V4.67814C5.85001 4.59489 4.66248 4.28441 3.68229 3.88428L2.45335 6.29128C2.265 6.66019 1.81324 6.80656 1.44433 6.6182C1.07542 6.42985 0.929051 5.9781 1.11741 5.60919L2.33861 3.21735C1.72289 2.85245 1.24133 2.4772 0.889647 2.16451C0.654451 1.9554 0.476642 1.77365 0.354889 1.64063C0.293984 1.5741 0.247008 1.51965 0.213799 1.47993C0.197191 1.46007 0.184015 1.44389 0.174251 1.4317L0.162157 1.41646L0.158021 1.41117L0.15643 1.40912L0.155753 1.40824C-0.0967688 1.0799 -0.0359056 0.608247 0.292432 0.355725Z" fill="#93959C"/>
</svg>
