<svg display="block" width="25" height="26" viewBox="0 0 25 26" fill="none" xmlns="http://www.w3.org/2000/svg">
<path d="M4.13302 15.4844L9.1179 15.522C9.7261 15.5266 10.2445 15.9616 10.3546 16.5598L11.2573 21.4624C11.3537 21.9861 11.0025 22.4888 10.4774 22.5788L4.31008 23.6365C3.73018 23.7359 3.2011 23.2919 3.19833 22.7036L3.16896 16.4463C3.16646 15.9135 3.60053 15.4804 4.13302 15.4844Z" fill="#FF955C"/>
<path d="M10.5062 1.28835L22.4837 0.315039C22.9992 0.273149 23.4528 0.649829 23.5064 1.16424L24.7853 13.4585C24.8467 14.0488 24.36 14.5531 23.7682 14.5124L0.812737 12.9345C0.294717 12.8989 0.0375365 12.2904 0.372047 11.8917L8.32134 2.4182C8.86994 1.76439 9.65704 1.35736 10.5062 1.28835Z" fill="#0090FF"/>
<path d="M15.49 24.9883L22.0295 17.1948C22.3692 16.7899 22.0981 16.1726 21.5711 16.1511L13.6798 15.8289C13.0549 15.8034 12.5731 16.3766 12.7057 16.9878L14.3823 24.7171C14.4942 25.233 15.1499 25.3935 15.49 24.9883Z" fill="#0090FF"/>
</svg>
